<svg width="27" height="32" viewBox="0 0 27 32" fill="none" xmlns="http://www.w3.org/2000/svg">
<path fill-rule="evenodd" clip-rule="evenodd" d="M27 8V14.4394H19.2294V12.6052L27 8Z" fill="#85CFEF"/>
<path fill-rule="evenodd" clip-rule="evenodd" d="M26.9984 8.00008L19.2278 12.6053L13.4981 9.2104V0L26.9984 8.00008Z" fill="url(#paint0_linear_25_175)"/>
<path fill-rule="evenodd" clip-rule="evenodd" d="M7.7705 12.6053V19.3947L0 23.9995V8.00008L7.7705 12.6053Z" fill="url(#paint1_linear_25_175)"/>
<path fill-rule="evenodd" clip-rule="evenodd" d="M13.5 0V9.2104L7.77212 12.6053L0.00158167 8.00008L13.5 0Z" fill="url(#paint2_linear_25_175)" fill-opacity="0.972549"/>
<path fill-rule="evenodd" clip-rule="evenodd" d="M13.4984 22.7897V32L0 23.9995L7.7705 19.3947L13.4984 22.7897Z" fill="url(#paint3_linear_25_175)"/>
<path fill-rule="evenodd" clip-rule="evenodd" d="M26.9984 23.9995L13.4984 32V22.7897L19.2278 19.3947L26.9984 23.9995Z" fill="url(#paint4_linear_25_175)"/>
<path fill-rule="evenodd" clip-rule="evenodd" d="M27 17.5606V23.9995L19.2294 19.3947V17.5606H27Z" fill="url(#paint5_linear_25_175)"/>
<defs>
<linearGradient id="paint0_linear_25_175" x1="29" y1="26.0354" x2="-4.28887" y2="8.39704" gradientUnits="userSpaceOnUse">
<stop stop-color="#85CFEF"/>
<stop offset="1" stop-color="#6BBCE9"/>
</linearGradient>
<linearGradient id="paint1_linear_25_175" x1="13" y1="0" x2="13" y2="32" gradientUnits="userSpaceOnUse">
<stop stop-color="#4FA9E2"/>
<stop offset="1" stop-color="#3A95CC"/>
</linearGradient>
<linearGradient id="paint2_linear_25_175" x1="29" y1="6.13996" x2="-4.25208" y2="23.4556" gradientUnits="userSpaceOnUse">
<stop stop-color="#6BBCE9"/>
<stop offset="1" stop-color="#4FA9E2"/>
</linearGradient>
<linearGradient id="paint3_linear_25_175" x1="-3" y1="5.90323" x2="30.2994" y2="23.66" gradientUnits="userSpaceOnUse">
<stop stop-color="#3A95CC"/>
<stop offset="1" stop-color="#2C7DAF"/>
</linearGradient>
<linearGradient id="paint4_linear_25_175" x1="-3" y1="26.1857" x2="30.319" y2="8.26696" gradientUnits="userSpaceOnUse">
<stop stop-color="#2C7DAF"/>
<stop offset="1" stop-color="#1F658F"/>
</linearGradient>
<linearGradient id="paint5_linear_25_175" x1="23.0998" y1="23.9995" x2="23.1305" y2="17.5606" gradientUnits="userSpaceOnUse">
<stop stop-color="#1F658F"/>
<stop offset="1" stop-color="#154E6F"/>
</linearGradient>
</defs>
</svg>
