<svg width="116" height="32" viewBox="0 0 116 32" fill="none" xmlns="http://www.w3.org/2000/svg">
<path fill-rule="evenodd" clip-rule="evenodd" d="M27 8V14.4394H19.2294V12.6052L27 8Z" fill="#85CFEF"/>
<path fill-rule="evenodd" clip-rule="evenodd" d="M26.9984 8.00008L19.2278 12.6053L13.4981 9.2104V0L26.9984 8.00008Z" fill="url(#paint0_linear_23_61)"/>
<path fill-rule="evenodd" clip-rule="evenodd" d="M7.7705 12.6053V19.3947L0 23.9995V8.00008L7.7705 12.6053Z" fill="url(#paint1_linear_23_61)"/>
<path fill-rule="evenodd" clip-rule="evenodd" d="M13.5 0V9.2104L7.77212 12.6053L0.00158174 8.00008L13.5 0Z" fill="url(#paint2_linear_23_61)" fill-opacity="0.972549"/>
<path fill-rule="evenodd" clip-rule="evenodd" d="M13.4984 22.7897V32L0 23.9995L7.7705 19.3947L13.4984 22.7897Z" fill="url(#paint3_linear_23_61)"/>
<path fill-rule="evenodd" clip-rule="evenodd" d="M26.9984 23.9995L13.4984 32V22.7897L19.2278 19.3947L26.9984 23.9995Z" fill="url(#paint4_linear_23_61)"/>
<path fill-rule="evenodd" clip-rule="evenodd" d="M27 17.5606V23.9995L19.2294 19.3947V17.5606H27Z" fill="url(#paint5_linear_23_61)"/>
<path d="M40.5293 8.74219C41.7012 8.74219 42.6908 8.92122 43.498 9.2793C44.3053 9.63086 44.9596 10.1257 45.4609 10.7637C45.9688 11.4017 46.3333 12.1667 46.5547 13.0586C46.776 13.944 46.8867 14.9206 46.8867 15.9883C46.8867 17.056 46.776 18.0358 46.5547 18.9277C46.3333 19.8132 45.9688 20.5749 45.4609 21.2129C44.9596 21.8509 44.3053 22.349 43.498 22.707C42.6908 23.0586 41.7012 23.2344 40.5293 23.2344C39.377 23.2344 38.3971 23.0618 37.5898 22.7168C36.7826 22.3717 36.125 21.8835 35.6172 21.252C35.1159 20.6204 34.748 19.8587 34.5137 18.9668C34.2858 18.0749 34.1719 17.082 34.1719 15.9883C34.1719 14.8945 34.2858 13.9017 34.5137 13.0098C34.748 12.1178 35.1159 11.3561 35.6172 10.7246C36.125 10.0931 36.7826 9.60482 37.5898 9.25977C38.3971 8.91471 39.377 8.74219 40.5293 8.74219ZM40.5293 10.7441C39.8457 10.7441 39.2728 10.8548 38.8105 11.0762C38.3548 11.2975 37.987 11.6296 37.707 12.0723C37.4336 12.5085 37.2383 13.0553 37.1211 13.7129C37.0039 14.3639 36.9453 15.1224 36.9453 15.9883C36.9453 16.8542 37.0039 17.6159 37.1211 18.2734C37.2383 18.9245 37.4336 19.4714 37.707 19.9141C37.987 20.3503 38.3548 20.679 38.8105 20.9004C39.2728 21.1217 39.8457 21.2324 40.5293 21.2324C41.2064 21.2324 41.7728 21.125 42.2285 20.9102C42.6908 20.6888 43.0586 20.36 43.332 19.9238C43.612 19.4876 43.8105 18.9408 43.9277 18.2832C44.0514 17.6257 44.1133 16.8607 44.1133 15.9883C44.1133 15.1159 44.0514 14.3509 43.9277 13.6934C43.8105 13.0358 43.612 12.4889 43.332 12.0527C43.0586 11.6165 42.6908 11.291 42.2285 11.0762C41.7728 10.8548 41.2064 10.7441 40.5293 10.7441Z" fill="white"/>
<path d="M52.5336 14.582C52.7484 14.2565 52.9698 13.9733 53.1977 13.7324C53.432 13.485 53.6794 13.2799 53.9398 13.1172C54.2068 12.9479 54.4965 12.8242 54.809 12.7461C55.128 12.6615 55.4796 12.6191 55.8637 12.6191C56.2934 12.6191 56.6742 12.668 57.0062 12.7656C57.3383 12.8568 57.6247 12.9935 57.8656 13.1758C58.1065 13.3516 58.3083 13.5729 58.4711 13.8398C58.6404 14.1003 58.7738 14.3965 58.8715 14.7285C58.9626 15.0605 59.0277 15.4219 59.0668 15.8125C59.1124 16.1966 59.1352 16.6133 59.1352 17.0625V23H56.4594V16.291C56.4594 15.7311 56.3292 15.3047 56.0687 15.0117C55.8148 14.7188 55.4665 14.5723 55.0238 14.5723C54.7764 14.5723 54.5323 14.6309 54.2914 14.748C54.057 14.8652 53.8292 15.0215 53.6078 15.2168C53.3865 15.4056 53.1814 15.6204 52.9926 15.8613C52.8038 16.1022 52.6345 16.3464 52.4848 16.5938V23H49.809V16.7402C49.809 16.2129 49.8025 15.7734 49.7895 15.4219C49.7829 15.0638 49.7667 14.748 49.7406 14.4746C49.7276 14.3379 49.7146 14.2174 49.7016 14.1133C49.6885 14.0091 49.6723 13.9082 49.6527 13.8105C49.6397 13.7129 49.6202 13.6152 49.5941 13.5176C49.5746 13.4134 49.5486 13.2962 49.516 13.166C49.9392 13.0553 50.3591 12.9577 50.7758 12.873C51.199 12.7819 51.6254 12.6973 52.0551 12.6191C52.1006 12.7559 52.143 12.8926 52.182 13.0293C52.2211 13.1595 52.2536 13.3027 52.2797 13.459C52.3057 13.6087 52.3285 13.7747 52.348 13.957C52.3676 14.1393 52.3871 14.3477 52.4066 14.582H52.5336Z" fill="white"/>
<path d="M70.4949 22.541C70.228 22.6517 69.935 22.7493 69.616 22.834C69.3035 22.9186 68.9747 22.9902 68.6297 23.0488C68.2846 23.1074 67.9331 23.153 67.575 23.1855C67.2234 23.2181 66.8784 23.2344 66.5398 23.2344C64.8276 23.2344 63.532 22.8242 62.6531 22.0039C61.7807 21.1771 61.3445 19.9141 61.3445 18.2148C61.3445 17.4596 61.4324 16.7435 61.6082 16.0664C61.784 15.3893 62.0672 14.7969 62.4578 14.2891C62.8549 13.7747 63.3725 13.3678 64.0105 13.0684C64.6551 12.7689 65.4428 12.6191 66.3738 12.6191C68.0014 12.6191 69.2156 13.0521 70.0164 13.918C70.8172 14.7773 71.2176 16.0924 71.2176 17.8633V18.6348H64.0008C64.0138 19.0775 64.0659 19.4681 64.157 19.8066C64.2482 20.1452 64.3979 20.4316 64.6062 20.666C64.8211 20.8939 65.101 21.0697 65.4461 21.1934C65.7911 21.3105 66.2241 21.3691 66.7449 21.3691C67.2006 21.3691 67.6922 21.3138 68.2195 21.2031C68.7469 21.0859 69.297 20.9199 69.8699 20.7051L70.4949 22.541ZM68.5418 16.8965C68.4962 15.2884 67.7736 14.4844 66.3738 14.4844C65.6512 14.4844 65.101 14.6927 64.7234 15.1094C64.3523 15.526 64.1245 16.1217 64.0398 16.8965H68.5418Z" fill="white"/>
<path d="M85.7219 8.95703V23H82.9973V16.1543H76.7863V23H74.0617V8.95703H76.7863V14.1523H82.9973V8.95703H85.7219Z" fill="white"/>
<path d="M97.648 22.541C97.3811 22.6517 97.0882 22.7493 96.7691 22.834C96.4566 22.9186 96.1279 22.9902 95.7828 23.0488C95.4378 23.1074 95.0862 23.153 94.7281 23.1855C94.3766 23.2181 94.0315 23.2344 93.693 23.2344C91.9807 23.2344 90.6852 22.8242 89.8063 22.0039C88.9339 21.1771 88.4977 19.9141 88.4977 18.2148C88.4977 17.4596 88.5855 16.7435 88.7613 16.0664C88.9371 15.3893 89.2203 14.7969 89.6109 14.2891C90.0081 13.7747 90.5257 13.3678 91.1637 13.0684C91.8082 12.7689 92.596 12.6191 93.527 12.6191C95.1546 12.6191 96.3688 13.0521 97.1695 13.918C97.9703 14.7773 98.3707 16.0924 98.3707 17.8633V18.6348H91.1539C91.1669 19.0775 91.219 19.4681 91.3102 19.8066C91.4013 20.1452 91.551 20.4316 91.7594 20.666C91.9742 20.8939 92.2542 21.0697 92.5992 21.1934C92.9443 21.3105 93.3772 21.3691 93.898 21.3691C94.3538 21.3691 94.8453 21.3138 95.3727 21.2031C95.9 21.0859 96.4501 20.9199 97.023 20.7051L97.648 22.541ZM95.6949 16.8965C95.6494 15.2884 94.9267 14.4844 93.527 14.4844C92.8043 14.4844 92.2542 14.6927 91.8766 15.1094C91.5055 15.526 91.2776 16.1217 91.193 16.8965H95.6949Z" fill="white"/>
<path d="M103.188 19.0156C103.188 19.556 103.191 20.0085 103.197 20.373C103.21 20.7376 103.23 21.0566 103.256 21.3301C103.269 21.4733 103.282 21.6003 103.295 21.7109C103.308 21.8151 103.321 21.9193 103.334 22.0234C103.347 22.1211 103.363 22.222 103.383 22.3262C103.409 22.4238 103.438 22.5345 103.471 22.6582C103.041 22.7884 102.611 22.9023 102.182 23C101.752 23.0911 101.312 23.1693 100.863 23.2344C100.766 22.9414 100.681 22.6322 100.609 22.3066C100.544 21.9746 100.512 21.6133 100.512 21.2227V8.9375H103.188V19.0156Z" fill="white"/>
<path d="M108.766 14.4746C109.521 13.2376 110.589 12.6191 111.969 12.6191C112.653 12.6191 113.229 12.7526 113.698 13.0195C114.166 13.2865 114.544 13.6478 114.83 14.1035C115.123 14.5527 115.332 15.0768 115.455 15.6758C115.586 16.2682 115.651 16.8965 115.651 17.5605C115.651 18.498 115.524 19.3216 115.27 20.0312C115.023 20.7344 114.671 21.3236 114.215 21.7988C113.76 22.2741 113.213 22.6322 112.575 22.873C111.943 23.1139 111.243 23.2344 110.475 23.2344C110.195 23.2344 109.922 23.2214 109.655 23.1953C109.394 23.1693 109.131 23.1367 108.864 23.0977V26.916H106.198V16.1641C106.198 15.8581 106.194 15.5716 106.188 15.3047C106.188 15.0378 106.178 14.7839 106.159 14.543C106.139 14.3021 106.11 14.0677 106.071 13.8398C106.038 13.6055 105.989 13.3711 105.924 13.1367C106.341 13.0195 106.735 12.9219 107.106 12.8438C107.477 12.7656 107.877 12.6908 108.307 12.6191C108.353 12.7559 108.395 12.8861 108.434 13.0098C108.473 13.1335 108.506 13.2669 108.532 13.4102C108.564 13.5534 108.59 13.7096 108.61 13.8789C108.629 14.0482 108.646 14.2467 108.659 14.4746H108.766ZM108.834 21.0859C109.355 21.2161 109.84 21.2812 110.289 21.2812C110.674 21.2812 111.028 21.2292 111.354 21.125C111.686 21.0208 111.969 20.8516 112.204 20.6172C112.444 20.3828 112.633 20.0801 112.77 19.709C112.907 19.3379 112.975 18.8854 112.975 18.3516C112.975 17.7982 112.952 17.2904 112.907 16.8281C112.861 16.3659 112.77 15.9688 112.633 15.6367C112.496 15.2982 112.301 15.0378 112.047 14.8555C111.793 14.6667 111.458 14.5723 111.041 14.5723C110.735 14.5723 110.465 14.6341 110.231 14.7578C110.003 14.8815 109.795 15.054 109.606 15.2754C109.463 15.4316 109.329 15.6107 109.205 15.8125C109.082 16.0078 108.958 16.2194 108.834 16.4473V21.0859Z" fill="white"/>
<defs>
<linearGradient id="paint0_linear_23_61" x1="115.651" y1="26.0354" x2="82.6352" y2="-37.188" gradientUnits="userSpaceOnUse">
<stop stop-color="#85CFEF"/>
<stop offset="1" stop-color="#6BBCE9"/>
</linearGradient>
<linearGradient id="paint1_linear_23_61" x1="57.8254" y1="0" x2="57.8254" y2="32" gradientUnits="userSpaceOnUse">
<stop stop-color="#4FA9E2"/>
<stop offset="1" stop-color="#3A95CC"/>
</linearGradient>
<linearGradient id="paint2_linear_23_61" x1="115.651" y1="6.13996" x2="82.0165" y2="69.4396" gradientUnits="userSpaceOnUse">
<stop stop-color="#6BBCE9"/>
<stop offset="1" stop-color="#4FA9E2"/>
</linearGradient>
<linearGradient id="paint3_linear_23_61" x1="1.27761e-06" y1="5.90323" x2="32.7886" y2="69.0931" gradientUnits="userSpaceOnUse">
<stop stop-color="#3A95CC"/>
<stop offset="1" stop-color="#2C7DAF"/>
</linearGradient>
<linearGradient id="paint4_linear_23_61" x1="-2.37031e-07" y1="26.1857" x2="32.4937" y2="-36.9701" gradientUnits="userSpaceOnUse">
<stop stop-color="#2C7DAF"/>
<stop offset="1" stop-color="#1F658F"/>
</linearGradient>
<linearGradient id="paint5_linear_23_61" x1="57.604" y1="32" x2="57.655" y2="-0.000623139" gradientUnits="userSpaceOnUse">
<stop stop-color="#1F658F"/>
<stop offset="1" stop-color="#154E6F"/>
</linearGradient>
</defs>
</svg>
